<svg id="Layer_1" data-name="Layer 1" xmlns="http://www.w3.org/2000/svg" viewBox="0 0 512.3 512"><defs><style>.cls-1{fill:#61dafb;}</style></defs><title>sync-solid</title><path class="cls-1" d="M440.9,12.6l4,82.7A247.5,247.5,0,0,0,256,8C134.8,8,33.9,94.9,12.3,209.8A12,12,0,0,0,24.1,224H73.2a12,12,0,0,0,11.7-9.3,176,176,0,0,1,317.2-56.9l-101.5-4.9a12.1,12.1,0,0,0-12.6,12v47.4a12,12,0,0,0,12,12H500.3a11.9,11.9,0,0,0,12-12V12a12,12,0,0,0-12-12H452.9A12.1,12.1,0,0,0,440.9,12.6ZM256,432a175.8,175.8,0,0,1-146.1-77.8l101.9,4.9a12,12,0,0,0,12.5-12V299.7a11.9,11.9,0,0,0-12-12H12a12,12,0,0,0-12,12V500a12,12,0,0,0,12,12H59.4a12.1,12.1,0,0,0,12-12.6l-4.2-82.6A247.3,247.3,0,0,0,256,504c121.2,0,222.1-86.9,243.7-201.8A12,12,0,0,0,487.9,288H438.8a12,12,0,0,0-11.7,9.3A175.8,175.8,0,0,1,256,432Z"/></svg>